<mxfile host="app.diagrams.net" modified="2020-03-21T20:35:51.818Z" agent="Mozilla/5.0 (Windows NT 10.0; Win64; x64) AppleWebKit/537.36 (KHTML, like Gecko) Chrome/80.0.3987.149 Safari/537.36" etag="X8S9fx5WMDJsj04NaWQT" version="12.8.8" type="github">
  <diagram id="s-fJWoQtj2VFVK5msN_l" name="Page-1">
    <mxGraphModel dx="3130" dy="2569" grid="1" gridSize="10" guides="1" tooltips="1" connect="1" arrows="1" fold="1" page="1" pageScale="1" pageWidth="827" pageHeight="1169" math="0" shadow="0">
      <root>
        <mxCell id="0" />
        <mxCell id="1" parent="0" />
        <mxCell id="EgX6zlfz2IxhlC0AGUEL-68" style="edgeStyle=orthogonalEdgeStyle;curved=1;comic=0;orthogonalLoop=1;jettySize=auto;html=1;shadow=0;startArrow=classic;startFill=1;endArrow=none;endFill=0;dashed=1;exitX=1;exitY=0.5;exitDx=0;exitDy=0;" parent="1" edge="1">
          <mxGeometry relative="1" as="geometry">
            <mxPoint x="400" y="410.9999999999998" as="sourcePoint" />
          </mxGeometry>
        </mxCell>
        <mxCell id="IQOuE0TxBNfk_iXKN2kF-135" value="rdfs:subClassOf" style="text;html=1;align=center;verticalAlign=middle;resizable=0;points=[];labelBackgroundColor=#ffffff;fontColor=#000000;" parent="EgX6zlfz2IxhlC0AGUEL-68" vertex="1" connectable="0">
          <mxGeometry x="-0.3157" y="-24" relative="1" as="geometry">
            <mxPoint x="24" y="35.239999999999995" as="offset" />
          </mxGeometry>
        </mxCell>
        <mxCell id="EgX6zlfz2IxhlC0AGUEL-69" style="edgeStyle=orthogonalEdgeStyle;curved=1;comic=0;orthogonalLoop=1;jettySize=auto;html=1;exitX=0.5;exitY=1;exitDx=0;exitDy=0;shadow=0;startArrow=classic;startFill=1;endArrow=none;endFill=0;entryX=0.5;entryY=0;entryDx=0;entryDy=0;dashed=1;" parent="1" edge="1">
          <mxGeometry relative="1" as="geometry">
            <Array as="points" />
            <mxPoint x="440" y="580.9999999999998" as="sourcePoint" />
          </mxGeometry>
        </mxCell>
        <mxCell id="yLDOqc1vmUTKO-x5eXoO-11" value="rdfs:subClassOf" style="text;html=1;align=center;verticalAlign=middle;resizable=0;points=[];labelBackgroundColor=#ffffff;" parent="EgX6zlfz2IxhlC0AGUEL-69" vertex="1" connectable="0">
          <mxGeometry x="0.2131" y="1" relative="1" as="geometry">
            <mxPoint x="-1" y="-5.070000000000004" as="offset" />
          </mxGeometry>
        </mxCell>
        <mxCell id="EgX6zlfz2IxhlC0AGUEL-70" style="edgeStyle=orthogonalEdgeStyle;curved=1;comic=0;orthogonalLoop=1;jettySize=auto;html=1;entryX=0.454;entryY=0.012;entryDx=0;entryDy=0;shadow=0;startArrow=classic;startFill=1;endArrow=none;endFill=0;dashed=1;exitX=1;exitY=0.5;exitDx=0;exitDy=0;entryPerimeter=0;" parent="1" edge="1">
          <mxGeometry relative="1" as="geometry">
            <Array as="points">
              <mxPoint x="540" y="541" />
              <mxPoint x="540" y="635" />
            </Array>
            <mxPoint x="480" y="540.9999999999998" as="sourcePoint" />
          </mxGeometry>
        </mxCell>
        <mxCell id="IQOuE0TxBNfk_iXKN2kF-133" value="rdfs:subClassOf" style="text;html=1;align=center;verticalAlign=middle;resizable=0;points=[];labelBackgroundColor=#ffffff;fontColor=#000000;" parent="EgX6zlfz2IxhlC0AGUEL-70" vertex="1" connectable="0">
          <mxGeometry x="-0.1822" y="-30" relative="1" as="geometry">
            <mxPoint x="32.99999999999999" y="67.93" as="offset" />
          </mxGeometry>
        </mxCell>
        <mxCell id="YXmZzTaMJZQWAt_202FO-1" style="edgeStyle=orthogonalEdgeStyle;curved=1;comic=0;orthogonalLoop=1;jettySize=auto;html=1;shadow=0;startArrow=classic;startFill=1;endArrow=none;endFill=0;exitX=0.5;exitY=1;exitDx=0;exitDy=0;dashed=1;fontStyle=1" edge="1" parent="1" source="YXmZzTaMJZQWAt_202FO-3" target="YXmZzTaMJZQWAt_202FO-69">
          <mxGeometry relative="1" as="geometry" />
        </mxCell>
        <mxCell id="YXmZzTaMJZQWAt_202FO-2" value="rdfs:subClassOf" style="text;html=1;align=center;verticalAlign=middle;resizable=0;points=[];labelBackgroundColor=#ffffff;fontColor=#000000;fontStyle=1" vertex="1" connectable="0" parent="YXmZzTaMJZQWAt_202FO-1">
          <mxGeometry x="0.1369" y="1" relative="1" as="geometry">
            <mxPoint x="-2.58" y="3.75" as="offset" />
          </mxGeometry>
        </mxCell>
        <mxCell id="YXmZzTaMJZQWAt_202FO-3" value="sbeo:Device" style="ellipse;whiteSpace=wrap;html=1;aspect=fixed;fillColor=#dae8fc;strokeColor=#6c8ebf;shadow=0;fontStyle=1" vertex="1" parent="1">
          <mxGeometry x="143" y="223.5" width="80" height="80" as="geometry" />
        </mxCell>
        <mxCell id="YXmZzTaMJZQWAt_202FO-4" value="seas:Zone&lt;br&gt;Connection" style="ellipse;whiteSpace=wrap;html=1;aspect=fixed;fillColor=#1ba1e2;strokeColor=#006EAF;fontColor=#ffffff;shadow=0;fontStyle=1" vertex="1" parent="1">
          <mxGeometry x="524.03" y="228.16" width="80" height="80" as="geometry" />
        </mxCell>
        <mxCell id="YXmZzTaMJZQWAt_202FO-5" style="edgeStyle=orthogonalEdgeStyle;curved=1;comic=0;orthogonalLoop=1;jettySize=auto;html=1;exitX=0.5;exitY=1;exitDx=0;exitDy=0;entryX=0.5;entryY=0;entryDx=0;entryDy=0;shadow=0;startArrow=none;startFill=0;endArrow=classic;endFill=1;fontColor=#000000;fontStyle=1" edge="1" parent="1" source="YXmZzTaMJZQWAt_202FO-30" target="YXmZzTaMJZQWAt_202FO-94">
          <mxGeometry relative="1" as="geometry">
            <Array as="points">
              <mxPoint x="-61" y="330" />
              <mxPoint x="-300" y="330" />
              <mxPoint x="-300" y="516" />
              <mxPoint x="-209" y="516" />
            </Array>
          </mxGeometry>
        </mxCell>
        <mxCell id="YXmZzTaMJZQWAt_202FO-6" value="&lt;span style=&quot;background-color: rgb(255 , 102 , 102)&quot;&gt;foaf:lastName&lt;/span&gt;" style="text;html=1;align=center;verticalAlign=middle;resizable=0;points=[];labelBackgroundColor=#ffffff;fontStyle=1" vertex="1" connectable="0" parent="YXmZzTaMJZQWAt_202FO-5">
          <mxGeometry x="0.504" y="-2" relative="1" as="geometry">
            <mxPoint x="15" y="-0.3299999999999912" as="offset" />
          </mxGeometry>
        </mxCell>
        <mxCell id="YXmZzTaMJZQWAt_202FO-7" style="edgeStyle=orthogonalEdgeStyle;curved=1;comic=0;orthogonalLoop=1;jettySize=auto;html=1;exitX=0.5;exitY=1;exitDx=0;exitDy=0;entryX=0.5;entryY=0;entryDx=0;entryDy=0;shadow=0;startArrow=none;startFill=0;endArrow=classic;endFill=1;fontColor=#000000;fontStyle=1" edge="1" parent="1" source="YXmZzTaMJZQWAt_202FO-30" target="YXmZzTaMJZQWAt_202FO-95">
          <mxGeometry relative="1" as="geometry">
            <Array as="points">
              <mxPoint x="-61" y="320" />
              <mxPoint x="-330" y="320" />
              <mxPoint x="-330" y="560" />
              <mxPoint x="-209" y="560" />
            </Array>
          </mxGeometry>
        </mxCell>
        <mxCell id="YXmZzTaMJZQWAt_202FO-8" value="&lt;span style=&quot;background-color: rgb(102 , 255 , 102)&quot;&gt;sbeo:evacuation&lt;/span&gt;&lt;br&gt;&lt;span style=&quot;background-color: rgb(102 , 255 , 102)&quot;&gt;Status&lt;/span&gt;" style="text;html=1;align=center;verticalAlign=middle;resizable=0;points=[];labelBackgroundColor=#ffffff;fontStyle=1" vertex="1" connectable="0" parent="YXmZzTaMJZQWAt_202FO-7">
          <mxGeometry x="0.4045" y="4" relative="1" as="geometry">
            <mxPoint x="19" y="42.33" as="offset" />
          </mxGeometry>
        </mxCell>
        <mxCell id="YXmZzTaMJZQWAt_202FO-9" style="edgeStyle=orthogonalEdgeStyle;curved=1;comic=0;orthogonalLoop=1;jettySize=auto;html=1;exitX=0.5;exitY=1;exitDx=0;exitDy=0;entryX=0.5;entryY=0;entryDx=0;entryDy=0;shadow=0;startArrow=none;startFill=0;endArrow=classic;endFill=1;fontColor=#000000;fontStyle=1" edge="1" parent="1" source="YXmZzTaMJZQWAt_202FO-30" target="YXmZzTaMJZQWAt_202FO-130">
          <mxGeometry relative="1" as="geometry">
            <Array as="points">
              <mxPoint x="-61" y="390" />
              <mxPoint x="-211" y="390" />
            </Array>
          </mxGeometry>
        </mxCell>
        <mxCell id="YXmZzTaMJZQWAt_202FO-10" value="&lt;span style=&quot;background-color: rgb(102 , 255 , 102)&quot;&gt;sbeo:familyID&lt;/span&gt;" style="text;html=1;align=center;verticalAlign=middle;resizable=0;points=[];labelBackgroundColor=#ffffff;fontStyle=1" vertex="1" connectable="0" parent="YXmZzTaMJZQWAt_202FO-9">
          <mxGeometry x="-0.0356" y="-5" relative="1" as="geometry">
            <mxPoint x="-46.83" y="-5" as="offset" />
          </mxGeometry>
        </mxCell>
        <mxCell id="YXmZzTaMJZQWAt_202FO-11" style="edgeStyle=orthogonalEdgeStyle;curved=1;comic=0;orthogonalLoop=1;jettySize=auto;html=1;exitX=0.5;exitY=1;exitDx=0;exitDy=0;entryX=0.5;entryY=0;entryDx=0;entryDy=0;shadow=0;startArrow=none;startFill=0;endArrow=classic;endFill=1;fontColor=#000000;fontStyle=1" edge="1" parent="1" source="YXmZzTaMJZQWAt_202FO-30" target="YXmZzTaMJZQWAt_202FO-92">
          <mxGeometry relative="1" as="geometry">
            <Array as="points">
              <mxPoint x="-61" y="426" />
              <mxPoint x="-209" y="426" />
            </Array>
          </mxGeometry>
        </mxCell>
        <mxCell id="YXmZzTaMJZQWAt_202FO-12" value="&lt;span style=&quot;background-color: rgb(102 , 255 , 102)&quot;&gt;sbeo:groupID&lt;/span&gt;" style="text;html=1;align=center;verticalAlign=middle;resizable=0;points=[];labelBackgroundColor=#ffffff;fontStyle=1" vertex="1" connectable="0" parent="YXmZzTaMJZQWAt_202FO-11">
          <mxGeometry x="-0.0031" y="-6" relative="1" as="geometry">
            <mxPoint x="-39.35" y="-6" as="offset" />
          </mxGeometry>
        </mxCell>
        <mxCell id="YXmZzTaMJZQWAt_202FO-13" style="edgeStyle=orthogonalEdgeStyle;curved=1;comic=0;orthogonalLoop=1;jettySize=auto;html=1;exitX=0.5;exitY=1;exitDx=0;exitDy=0;entryX=0.5;entryY=0;entryDx=0;entryDy=0;shadow=0;startArrow=none;startFill=0;endArrow=classic;endFill=1;fontColor=#000000;fontStyle=1" edge="1" parent="1" source="YXmZzTaMJZQWAt_202FO-30" target="YXmZzTaMJZQWAt_202FO-93">
          <mxGeometry relative="1" as="geometry">
            <Array as="points">
              <mxPoint x="-50" y="276" />
              <mxPoint x="-50" y="466" />
              <mxPoint x="-209" y="466" />
            </Array>
          </mxGeometry>
        </mxCell>
        <mxCell id="YXmZzTaMJZQWAt_202FO-14" value="&lt;span style=&quot;background-color: rgb(102 , 255 , 102)&quot;&gt;sbeo:fitnessLevel&lt;/span&gt;" style="text;html=1;align=center;verticalAlign=middle;resizable=0;points=[];labelBackgroundColor=#ffffff;fontStyle=1" vertex="1" connectable="0" parent="YXmZzTaMJZQWAt_202FO-13">
          <mxGeometry x="0.361" y="-2" relative="1" as="geometry">
            <mxPoint x="8" y="-10" as="offset" />
          </mxGeometry>
        </mxCell>
        <mxCell id="YXmZzTaMJZQWAt_202FO-15" style="edgeStyle=orthogonalEdgeStyle;curved=1;comic=0;orthogonalLoop=1;jettySize=auto;html=1;exitX=0.5;exitY=1;exitDx=0;exitDy=0;entryX=0.5;entryY=0;entryDx=0;entryDy=0;shadow=0;startArrow=none;startFill=0;endArrow=classic;endFill=1;fontColor=#000000;fontStyle=1" edge="1" parent="1" source="YXmZzTaMJZQWAt_202FO-30" target="YXmZzTaMJZQWAt_202FO-96">
          <mxGeometry relative="1" as="geometry">
            <Array as="points">
              <mxPoint x="-61" y="310" />
              <mxPoint x="-370" y="310" />
              <mxPoint x="-370" y="600" />
              <mxPoint x="-209" y="600" />
            </Array>
          </mxGeometry>
        </mxCell>
        <mxCell id="YXmZzTaMJZQWAt_202FO-16" value="&lt;span style=&quot;background-color: rgb(102 , 255 , 102)&quot;&gt;sbeo:familiarity&lt;/span&gt;&lt;br&gt;&lt;span style=&quot;background-color: rgb(102 , 255 , 102)&quot;&gt;WithBuilding&lt;/span&gt;" style="text;html=1;align=center;verticalAlign=middle;resizable=0;points=[];labelBackgroundColor=#ffffff;fontStyle=1" vertex="1" connectable="0" parent="YXmZzTaMJZQWAt_202FO-15">
          <mxGeometry x="-0.1464" y="3" relative="1" as="geometry">
            <mxPoint x="56" y="272" as="offset" />
          </mxGeometry>
        </mxCell>
        <mxCell id="YXmZzTaMJZQWAt_202FO-17" style="edgeStyle=orthogonalEdgeStyle;curved=1;comic=0;orthogonalLoop=1;jettySize=auto;html=1;exitX=0.5;exitY=1;exitDx=0;exitDy=0;entryX=1;entryY=0.5;entryDx=0;entryDy=0;shadow=0;startArrow=none;startFill=0;endArrow=classic;endFill=1;fontColor=#000000;fontStyle=1" edge="1" parent="1" source="YXmZzTaMJZQWAt_202FO-30" target="YXmZzTaMJZQWAt_202FO-93">
          <mxGeometry relative="1" as="geometry">
            <Array as="points">
              <mxPoint x="-40" y="276" />
              <mxPoint x="-40" y="500" />
              <mxPoint x="-121" y="500" />
              <mxPoint x="-121" y="498" />
            </Array>
          </mxGeometry>
        </mxCell>
        <mxCell id="YXmZzTaMJZQWAt_202FO-18" value="&lt;span style=&quot;background-color: rgb(102 , 255 , 102)&quot;&gt;sbeo:hasID&lt;/span&gt;" style="text;html=1;align=center;verticalAlign=middle;resizable=0;points=[];labelBackgroundColor=#ffffff;fontStyle=1" vertex="1" connectable="0" parent="YXmZzTaMJZQWAt_202FO-17">
          <mxGeometry x="0.477" y="-5" relative="1" as="geometry">
            <mxPoint x="-27.67" y="3.07" as="offset" />
          </mxGeometry>
        </mxCell>
        <mxCell id="YXmZzTaMJZQWAt_202FO-19" style="edgeStyle=orthogonalEdgeStyle;curved=1;comic=0;orthogonalLoop=1;jettySize=auto;html=1;exitX=0.5;exitY=1;exitDx=0;exitDy=0;entryX=0.5;entryY=0;entryDx=0;entryDy=0;shadow=0;startArrow=none;startFill=0;endArrow=classic;endFill=1;fontColor=#000000;fontStyle=1" edge="1" parent="1" source="YXmZzTaMJZQWAt_202FO-30" target="YXmZzTaMJZQWAt_202FO-97">
          <mxGeometry relative="1" as="geometry">
            <Array as="points">
              <mxPoint x="-30" y="276" />
              <mxPoint x="-30" y="520" />
              <mxPoint x="-121" y="520" />
            </Array>
          </mxGeometry>
        </mxCell>
        <mxCell id="YXmZzTaMJZQWAt_202FO-20" value="&lt;span style=&quot;background-color: rgb(255 , 102 , 102)&quot;&gt;foaf:firstName&lt;/span&gt;" style="text;html=1;align=center;verticalAlign=middle;resizable=0;points=[];labelBackgroundColor=#ffffff;fontStyle=1" vertex="1" connectable="0" parent="YXmZzTaMJZQWAt_202FO-19">
          <mxGeometry x="0.1755" y="-76" relative="1" as="geometry">
            <mxPoint x="36" y="50.83" as="offset" />
          </mxGeometry>
        </mxCell>
        <mxCell id="YXmZzTaMJZQWAt_202FO-21" style="edgeStyle=orthogonalEdgeStyle;curved=1;comic=0;orthogonalLoop=1;jettySize=auto;html=1;exitX=0.5;exitY=1;exitDx=0;exitDy=0;entryX=0.5;entryY=0;entryDx=0;entryDy=0;shadow=0;startArrow=none;startFill=0;endArrow=classic;endFill=1;fontColor=#000000;fontStyle=1" edge="1" parent="1" source="YXmZzTaMJZQWAt_202FO-30" target="YXmZzTaMJZQWAt_202FO-99">
          <mxGeometry relative="1" as="geometry">
            <Array as="points">
              <mxPoint x="20" y="276" />
              <mxPoint x="20" y="600" />
              <mxPoint x="-121" y="600" />
            </Array>
          </mxGeometry>
        </mxCell>
        <mxCell id="YXmZzTaMJZQWAt_202FO-22" value="&lt;span style=&quot;background-color: rgb(102 , 255 , 102)&quot;&gt;sbeo:needs&lt;br&gt;Supervision&lt;/span&gt;" style="text;html=1;align=center;verticalAlign=middle;resizable=0;points=[];labelBackgroundColor=#ffffff;fontStyle=1" vertex="1" connectable="0" parent="YXmZzTaMJZQWAt_202FO-21">
          <mxGeometry x="0.5475" y="-1" relative="1" as="geometry">
            <mxPoint x="-1.6699999999999982" y="-10" as="offset" />
          </mxGeometry>
        </mxCell>
        <mxCell id="YXmZzTaMJZQWAt_202FO-23" style="edgeStyle=orthogonalEdgeStyle;curved=1;comic=0;orthogonalLoop=1;jettySize=auto;html=1;exitX=0.5;exitY=1;exitDx=0;exitDy=0;entryX=0.5;entryY=0;entryDx=0;entryDy=0;shadow=0;startArrow=none;startFill=0;endArrow=classic;endFill=1;fontColor=#000000;fontStyle=1" edge="1" parent="1" source="YXmZzTaMJZQWAt_202FO-30" target="YXmZzTaMJZQWAt_202FO-100">
          <mxGeometry relative="1" as="geometry">
            <Array as="points">
              <mxPoint x="-10" y="276" />
              <mxPoint x="-10" y="560" />
              <mxPoint x="-121" y="560" />
            </Array>
          </mxGeometry>
        </mxCell>
        <mxCell id="YXmZzTaMJZQWAt_202FO-24" value="&lt;span style=&quot;color: rgba(0 , 0 , 0 , 0) ; font-family: monospace ; font-size: 0px ; background-color: rgb(248 , 249 , 250)&quot;&gt;%3CmxGraphModel%3E%3Croot%3E%3CmxCell%20id%3D%220%22%2F%3E%3CmxCell%20id%3D%221%22%20parent%3D%220%22%2F%3E%3CmxCell%20id%3D%222%22%20value%3D%22xsd%3Astring%22%20style%3D%22rounded%3D0%3BwhiteSpace%3Dwrap%3Bhtml%3D1%3BfillColor%3D%23ffff88%3BstrokeColor%3D%2336393d%3B%22%20vertex%3D%221%22%20parent%3D%221%22%3E%3CmxGeometry%20x%3D%22-560%22%20y%3D%22950%22%20width%3D%2278%22%20height%3D%2220%22%20as%3D%22geometry%22%2F%3E%3C%2FmxCell%3E%3C%2Froot%3E%3C%2FmxGraphModel%3E&lt;/span&gt;" style="text;html=1;align=center;verticalAlign=middle;resizable=0;points=[];labelBackgroundColor=#ffffff;fontStyle=1" vertex="1" connectable="0" parent="YXmZzTaMJZQWAt_202FO-23">
          <mxGeometry x="0.5207" y="-5" relative="1" as="geometry">
            <mxPoint as="offset" />
          </mxGeometry>
        </mxCell>
        <mxCell id="YXmZzTaMJZQWAt_202FO-25" value="&lt;span style=&quot;background-color: rgb(102 , 255 , 102)&quot;&gt;sbeo:atTime&lt;/span&gt;" style="text;html=1;align=center;verticalAlign=middle;resizable=0;points=[];labelBackgroundColor=#ffffff;fontStyle=1" vertex="1" connectable="0" parent="YXmZzTaMJZQWAt_202FO-23">
          <mxGeometry x="0.698" y="-10" relative="1" as="geometry">
            <mxPoint x="33" y="-4" as="offset" />
          </mxGeometry>
        </mxCell>
        <mxCell id="YXmZzTaMJZQWAt_202FO-26" style="edgeStyle=orthogonalEdgeStyle;curved=1;comic=0;orthogonalLoop=1;jettySize=auto;html=1;exitX=1;exitY=1;exitDx=0;exitDy=0;shadow=0;startArrow=none;startFill=0;endArrow=classic;endFill=1;fontColor=#000000;entryX=0;entryY=0;entryDx=0;entryDy=0;fontStyle=1" edge="1" parent="1" source="YXmZzTaMJZQWAt_202FO-30" target="YXmZzTaMJZQWAt_202FO-40">
          <mxGeometry relative="1" as="geometry">
            <Array as="points">
              <mxPoint x="42" y="264" />
              <mxPoint x="42" y="477" />
            </Array>
          </mxGeometry>
        </mxCell>
        <mxCell id="YXmZzTaMJZQWAt_202FO-27" value="&lt;span style=&quot;background-color: rgb(102 , 255 , 255)&quot;&gt;sbeo:assigned&lt;br&gt;Route&lt;/span&gt;" style="text;html=1;align=center;verticalAlign=middle;resizable=0;points=[];labelBackgroundColor=#ffffff;fontStyle=1" vertex="1" connectable="0" parent="YXmZzTaMJZQWAt_202FO-26">
          <mxGeometry x="0.1724" y="-10" relative="1" as="geometry">
            <mxPoint x="-0.030000000000007104" y="-68.83999999999999" as="offset" />
          </mxGeometry>
        </mxCell>
        <mxCell id="YXmZzTaMJZQWAt_202FO-28" style="edgeStyle=orthogonalEdgeStyle;orthogonalLoop=1;jettySize=auto;html=1;exitX=0.5;exitY=1;exitDx=0;exitDy=0;entryX=0.5;entryY=0;entryDx=0;entryDy=0;curved=1;fontStyle=1" edge="1" parent="1" source="YXmZzTaMJZQWAt_202FO-30" target="YXmZzTaMJZQWAt_202FO-89">
          <mxGeometry relative="1" as="geometry">
            <Array as="points">
              <mxPoint x="-61" y="340" />
              <mxPoint x="-209" y="340" />
            </Array>
          </mxGeometry>
        </mxCell>
        <mxCell id="YXmZzTaMJZQWAt_202FO-29" value="&lt;span style=&quot;&quot;&gt;foaf:age&lt;/span&gt;" style="text;html=1;align=center;verticalAlign=middle;resizable=0;points=[];labelBackgroundColor=#FF6666;fontStyle=1" vertex="1" connectable="0" parent="YXmZzTaMJZQWAt_202FO-28">
          <mxGeometry x="0.0505" y="1" relative="1" as="geometry">
            <mxPoint x="-10.93" y="-1" as="offset" />
          </mxGeometry>
        </mxCell>
        <mxCell id="YXmZzTaMJZQWAt_202FO-30" value="foaf:Person" style="ellipse;whiteSpace=wrap;html=1;aspect=fixed;fillColor=#1ba1e2;strokeColor=#006EAF;shadow=0;fontColor=#ffffff;fontStyle=1" vertex="1" parent="1">
          <mxGeometry x="-101" y="196" width="80" height="80" as="geometry" />
        </mxCell>
        <mxCell id="YXmZzTaMJZQWAt_202FO-31" style="edgeStyle=orthogonalEdgeStyle;curved=1;comic=0;orthogonalLoop=1;jettySize=auto;html=1;exitX=0.5;exitY=1;exitDx=0;exitDy=0;entryX=0.5;entryY=0;entryDx=0;entryDy=0;shadow=0;startArrow=none;startFill=0;endArrow=classic;endFill=1;fontColor=#000000;fontStyle=1" edge="1" parent="1" source="YXmZzTaMJZQWAt_202FO-33" target="YXmZzTaMJZQWAt_202FO-91">
          <mxGeometry relative="1" as="geometry">
            <Array as="points">
              <mxPoint x="1038.03" y="308.66" />
              <mxPoint x="1038.03" y="408.66" />
              <mxPoint x="1038.03" y="408.66" />
            </Array>
          </mxGeometry>
        </mxCell>
        <mxCell id="YXmZzTaMJZQWAt_202FO-32" value="&lt;span style=&quot;background-color: rgb(102 , 255 , 102)&quot;&gt;sbeo:atTime&lt;/span&gt;" style="text;html=1;align=center;verticalAlign=middle;resizable=0;points=[];labelBackgroundColor=#ffffff;fontStyle=1" vertex="1" connectable="0" parent="YXmZzTaMJZQWAt_202FO-31">
          <mxGeometry x="-0.4969" y="-12" relative="1" as="geometry">
            <mxPoint x="11.999999999999998" y="-13.5" as="offset" />
          </mxGeometry>
        </mxCell>
        <mxCell id="YXmZzTaMJZQWAt_202FO-33" value="sbeo:Incident" style="ellipse;whiteSpace=wrap;html=1;aspect=fixed;fillColor=#dae8fc;strokeColor=#6c8ebf;shadow=0;fontStyle=1" vertex="1" parent="1">
          <mxGeometry x="997.03" y="228.16" width="80" height="80" as="geometry" />
        </mxCell>
        <mxCell id="YXmZzTaMJZQWAt_202FO-34" style="edgeStyle=orthogonalEdgeStyle;curved=1;comic=0;orthogonalLoop=1;jettySize=auto;html=1;entryX=0.5;entryY=0;entryDx=0;entryDy=0;shadow=0;startArrow=none;startFill=0;endArrow=classic;endFill=1;fontColor=#000000;exitX=0.5;exitY=1;exitDx=0;exitDy=0;fontStyle=1" edge="1" parent="1" source="YXmZzTaMJZQWAt_202FO-40" target="YXmZzTaMJZQWAt_202FO-98">
          <mxGeometry relative="1" as="geometry">
            <Array as="points">
              <mxPoint x="70" y="598" />
              <mxPoint x="71" y="598" />
            </Array>
          </mxGeometry>
        </mxCell>
        <mxCell id="YXmZzTaMJZQWAt_202FO-35" value="&lt;span style=&quot;background-color: rgb(102 , 255 , 102)&quot;&gt;sbeo:hasLength&lt;/span&gt;" style="text;html=1;align=center;verticalAlign=middle;resizable=0;points=[];labelBackgroundColor=#ffffff;fontStyle=1" vertex="1" connectable="0" parent="YXmZzTaMJZQWAt_202FO-34">
          <mxGeometry x="0.2469" y="-1" relative="1" as="geometry">
            <mxPoint x="-1" y="-12.14" as="offset" />
          </mxGeometry>
        </mxCell>
        <mxCell id="YXmZzTaMJZQWAt_202FO-36" style="edgeStyle=orthogonalEdgeStyle;curved=1;comic=0;orthogonalLoop=1;jettySize=auto;html=1;exitX=1;exitY=0.5;exitDx=0;exitDy=0;entryX=0;entryY=0;entryDx=0;entryDy=0;shadow=0;startArrow=none;startFill=0;endArrow=classic;endFill=1;fontColor=#000000;fontStyle=1" edge="1" parent="1" source="YXmZzTaMJZQWAt_202FO-40" target="YXmZzTaMJZQWAt_202FO-111">
          <mxGeometry relative="1" as="geometry">
            <Array as="points">
              <mxPoint x="110" y="477" />
            </Array>
          </mxGeometry>
        </mxCell>
        <mxCell id="YXmZzTaMJZQWAt_202FO-37" value="&lt;span style=&quot;background-color: rgb(102 , 255 , 255)&quot;&gt;sbeo:endsIn&lt;/span&gt;" style="text;html=1;align=center;verticalAlign=middle;resizable=0;points=[];labelBackgroundColor=#ffffff;fontStyle=1" vertex="1" connectable="0" parent="YXmZzTaMJZQWAt_202FO-36">
          <mxGeometry x="-0.028" y="-8" relative="1" as="geometry">
            <mxPoint x="12.830000000000002" y="-7.96" as="offset" />
          </mxGeometry>
        </mxCell>
        <mxCell id="YXmZzTaMJZQWAt_202FO-38" style="edgeStyle=orthogonalEdgeStyle;curved=1;comic=0;orthogonalLoop=1;jettySize=auto;html=1;exitX=1;exitY=0.5;exitDx=0;exitDy=0;entryX=0;entryY=1;entryDx=0;entryDy=0;shadow=0;startArrow=none;startFill=0;endArrow=classic;endFill=1;fontColor=#000000;fontStyle=1" edge="1" parent="1" source="YXmZzTaMJZQWAt_202FO-40" target="YXmZzTaMJZQWAt_202FO-111">
          <mxGeometry relative="1" as="geometry">
            <Array as="points">
              <mxPoint x="110" y="533" />
            </Array>
          </mxGeometry>
        </mxCell>
        <mxCell id="YXmZzTaMJZQWAt_202FO-39" value="&lt;span style=&quot;background-color: rgb(102 , 255 , 255)&quot;&gt;sbeo:hasPath&lt;/span&gt;" style="text;html=1;align=center;verticalAlign=middle;resizable=0;points=[];labelBackgroundColor=#ffffff;fontStyle=1" vertex="1" connectable="0" parent="YXmZzTaMJZQWAt_202FO-38">
          <mxGeometry x="0.3597" y="-6" relative="1" as="geometry">
            <mxPoint x="-17.14" y="-10.3" as="offset" />
          </mxGeometry>
        </mxCell>
        <mxCell id="YXmZzTaMJZQWAt_202FO-40" value="sbeo:Route" style="ellipse;whiteSpace=wrap;html=1;aspect=fixed;fillColor=#dae8fc;strokeColor=#6c8ebf;shadow=0;fontStyle=1" vertex="1" parent="1">
          <mxGeometry x="29.999999999999943" y="465" width="80" height="80" as="geometry" />
        </mxCell>
        <mxCell id="YXmZzTaMJZQWAt_202FO-41" style="edgeStyle=orthogonalEdgeStyle;curved=1;comic=0;orthogonalLoop=1;jettySize=auto;html=1;shadow=0;startArrow=classic;startFill=1;endArrow=none;endFill=0;dashed=1;entryX=1;entryY=0.5;entryDx=0;entryDy=0;fontStyle=1" edge="1" parent="1" source="YXmZzTaMJZQWAt_202FO-45" target="YXmZzTaMJZQWAt_202FO-87">
          <mxGeometry relative="1" as="geometry">
            <mxPoint x="994.03" y="484.66" as="targetPoint" />
            <Array as="points">
              <mxPoint x="990" y="268" />
              <mxPoint x="990" y="574" />
            </Array>
          </mxGeometry>
        </mxCell>
        <mxCell id="YXmZzTaMJZQWAt_202FO-42" value="rdfs:subClassOf" style="text;html=1;align=center;verticalAlign=middle;resizable=0;points=[];labelBackgroundColor=#ffffff;fontColor=#000000;fontStyle=1" vertex="1" connectable="0" parent="YXmZzTaMJZQWAt_202FO-41">
          <mxGeometry x="-0.4006" y="22" relative="1" as="geometry">
            <mxPoint x="-42" y="201.97" as="offset" />
          </mxGeometry>
        </mxCell>
        <mxCell id="YXmZzTaMJZQWAt_202FO-43" style="edgeStyle=orthogonalEdgeStyle;curved=1;comic=0;orthogonalLoop=1;jettySize=auto;html=1;entryX=1;entryY=0.5;entryDx=0;entryDy=0;shadow=0;startArrow=classic;startFill=1;endArrow=none;endFill=0;dashed=1;exitX=1;exitY=0.5;exitDx=0;exitDy=0;fontStyle=1" edge="1" parent="1" source="YXmZzTaMJZQWAt_202FO-45" target="YXmZzTaMJZQWAt_202FO-79">
          <mxGeometry relative="1" as="geometry">
            <Array as="points">
              <mxPoint x="954" y="268" />
              <mxPoint x="954" y="484" />
            </Array>
          </mxGeometry>
        </mxCell>
        <mxCell id="YXmZzTaMJZQWAt_202FO-44" value="rdfs:subClassOf" style="text;html=1;align=center;verticalAlign=middle;resizable=0;points=[];labelBackgroundColor=#ffffff;fontColor=#000000;fontStyle=1" vertex="1" connectable="0" parent="YXmZzTaMJZQWAt_202FO-43">
          <mxGeometry x="0.3118" y="1" relative="1" as="geometry">
            <mxPoint x="-11" y="20.25999999999999" as="offset" />
          </mxGeometry>
        </mxCell>
        <mxCell id="YXmZzTaMJZQWAt_202FO-45" value="sbeo:Space&lt;br&gt;Characteristic" style="ellipse;aspect=fixed;fillColor=#dae8fc;strokeColor=#6c8ebf;horizontal=1;verticalAlign=middle;align=center;labelBorderColor=none;whiteSpace=wrap;html=1;shadow=0;fontStyle=1" vertex="1" parent="1">
          <mxGeometry x="845.03" y="228.16" width="80" height="80" as="geometry" />
        </mxCell>
        <mxCell id="YXmZzTaMJZQWAt_202FO-46" style="edgeStyle=orthogonalEdgeStyle;curved=1;comic=0;orthogonalLoop=1;jettySize=auto;html=1;exitX=0;exitY=0;exitDx=0;exitDy=0;entryX=0;entryY=0.5;entryDx=0;entryDy=0;shadow=0;startArrow=none;startFill=0;endArrow=classic;endFill=1;fontColor=#000000;fontStyle=1" edge="1" parent="1" source="YXmZzTaMJZQWAt_202FO-48" target="YXmZzTaMJZQWAt_202FO-126">
          <mxGeometry relative="1" as="geometry">
            <Array as="points">
              <mxPoint x="426" y="230" />
              <mxPoint x="260" y="230" />
              <mxPoint x="260" y="294" />
            </Array>
          </mxGeometry>
        </mxCell>
        <mxCell id="YXmZzTaMJZQWAt_202FO-47" value="&lt;span style=&quot;background-color: rgb(102 , 255 , 102)&quot;&gt;sbeo:accomodation&lt;/span&gt;&lt;br&gt;&lt;span style=&quot;background-color: rgb(102 , 255 , 102)&quot;&gt;Capacity&lt;/span&gt;" style="text;html=1;align=center;verticalAlign=middle;resizable=0;points=[];labelBackgroundColor=#ffffff;fontStyle=1" vertex="1" connectable="0" parent="YXmZzTaMJZQWAt_202FO-46">
          <mxGeometry x="0.1062" y="-1" relative="1" as="geometry">
            <mxPoint x="55.67" y="6" as="offset" />
          </mxGeometry>
        </mxCell>
        <mxCell id="YXmZzTaMJZQWAt_202FO-48" value="seas:Zone" style="ellipse;whiteSpace=wrap;html=1;aspect=fixed;fillColor=#1ba1e2;strokeColor=#006EAF;fontColor=#ffffff;shadow=0;fontStyle=1" vertex="1" parent="1">
          <mxGeometry x="414" y="224.99999999999977" width="80" height="80" as="geometry" />
        </mxCell>
        <mxCell id="YXmZzTaMJZQWAt_202FO-49" style="edgeStyle=orthogonalEdgeStyle;curved=1;comic=0;orthogonalLoop=1;jettySize=auto;html=1;exitX=1;exitY=0.5;exitDx=0;exitDy=0;shadow=0;startArrow=classic;startFill=1;endArrow=none;endFill=0;dashed=1;entryX=1;entryY=0.5;entryDx=0;entryDy=0;fontStyle=1" edge="1" parent="1" source="YXmZzTaMJZQWAt_202FO-66" target="YXmZzTaMJZQWAt_202FO-3">
          <mxGeometry relative="1" as="geometry">
            <Array as="points">
              <mxPoint x="240" y="136" />
              <mxPoint x="240" y="263" />
            </Array>
            <mxPoint x="200" y="230" as="targetPoint" />
          </mxGeometry>
        </mxCell>
        <mxCell id="YXmZzTaMJZQWAt_202FO-50" value="rdfs:subClassOf" style="text;html=1;align=center;verticalAlign=middle;resizable=0;points=[];labelBackgroundColor=#ffffff;fontColor=#000000;fontStyle=1" vertex="1" connectable="0" parent="YXmZzTaMJZQWAt_202FO-49">
          <mxGeometry x="-0.1458" y="-2" relative="1" as="geometry">
            <mxPoint x="-7" y="-5.049999999999998" as="offset" />
          </mxGeometry>
        </mxCell>
        <mxCell id="YXmZzTaMJZQWAt_202FO-51" style="edgeStyle=orthogonalEdgeStyle;curved=1;comic=0;orthogonalLoop=1;jettySize=auto;html=1;exitX=1;exitY=0.5;exitDx=0;exitDy=0;entryX=0.5;entryY=0;entryDx=0;entryDy=0;shadow=0;startArrow=classic;startFill=1;endArrow=none;endFill=0;dashed=1;fontStyle=1" edge="1" parent="1" source="YXmZzTaMJZQWAt_202FO-66" target="YXmZzTaMJZQWAt_202FO-33">
          <mxGeometry relative="1" as="geometry">
            <Array as="points">
              <mxPoint x="1037" y="136" />
            </Array>
          </mxGeometry>
        </mxCell>
        <mxCell id="YXmZzTaMJZQWAt_202FO-52" value="rdfs:subClassOf" style="text;html=1;align=center;verticalAlign=middle;resizable=0;points=[];labelBackgroundColor=#ffffff;fontColor=#000000;fontStyle=1" vertex="1" connectable="0" parent="YXmZzTaMJZQWAt_202FO-51">
          <mxGeometry x="0.8654" y="-15" relative="1" as="geometry">
            <mxPoint x="7.990000000000002" y="40.38" as="offset" />
          </mxGeometry>
        </mxCell>
        <mxCell id="YXmZzTaMJZQWAt_202FO-53" style="edgeStyle=orthogonalEdgeStyle;curved=1;comic=0;orthogonalLoop=1;jettySize=auto;html=1;exitX=1;exitY=0.5;exitDx=0;exitDy=0;shadow=0;startArrow=classic;startFill=1;endArrow=none;endFill=0;dashed=1;entryX=0.5;entryY=0;entryDx=0;entryDy=0;fontStyle=1" edge="1" parent="1" source="YXmZzTaMJZQWAt_202FO-66" target="YXmZzTaMJZQWAt_202FO-45">
          <mxGeometry relative="1" as="geometry">
            <Array as="points">
              <mxPoint x="885" y="136" />
            </Array>
          </mxGeometry>
        </mxCell>
        <mxCell id="YXmZzTaMJZQWAt_202FO-54" value="rdfs:subClassOf" style="text;html=1;align=center;verticalAlign=middle;resizable=0;points=[];labelBackgroundColor=#ffffff;fontColor=#000000;fontStyle=1" vertex="1" connectable="0" parent="YXmZzTaMJZQWAt_202FO-53">
          <mxGeometry x="0.7195" y="-25" relative="1" as="geometry">
            <mxPoint x="16.8" y="45.44" as="offset" />
          </mxGeometry>
        </mxCell>
        <mxCell id="YXmZzTaMJZQWAt_202FO-55" style="edgeStyle=orthogonalEdgeStyle;curved=1;comic=0;orthogonalLoop=1;jettySize=auto;html=1;exitX=1;exitY=0.5;exitDx=0;exitDy=0;entryX=0.5;entryY=0;entryDx=0;entryDy=0;shadow=0;startArrow=classic;startFill=1;endArrow=none;endFill=0;dashed=1;fontStyle=1" edge="1" parent="1" source="YXmZzTaMJZQWAt_202FO-66" target="YXmZzTaMJZQWAt_202FO-48">
          <mxGeometry relative="1" as="geometry">
            <Array as="points">
              <mxPoint x="454" y="136" />
            </Array>
          </mxGeometry>
        </mxCell>
        <mxCell id="YXmZzTaMJZQWAt_202FO-56" value="rdfs:subClassOf" style="text;html=1;align=center;verticalAlign=middle;resizable=0;points=[];labelBackgroundColor=#ffffff;fontColor=#000000;fontStyle=1" vertex="1" connectable="0" parent="YXmZzTaMJZQWAt_202FO-55">
          <mxGeometry x="0.9604" y="-7" relative="1" as="geometry">
            <mxPoint x="-67" y="-58.19" as="offset" />
          </mxGeometry>
        </mxCell>
        <mxCell id="YXmZzTaMJZQWAt_202FO-57" style="edgeStyle=orthogonalEdgeStyle;curved=1;comic=0;orthogonalLoop=1;jettySize=auto;html=1;exitX=1;exitY=0.5;exitDx=0;exitDy=0;shadow=0;startArrow=classic;startFill=1;endArrow=none;endFill=0;dashed=1;entryX=0.5;entryY=0;entryDx=0;entryDy=0;fontStyle=1" edge="1" parent="1" source="YXmZzTaMJZQWAt_202FO-66" target="YXmZzTaMJZQWAt_202FO-4">
          <mxGeometry relative="1" as="geometry">
            <Array as="points">
              <mxPoint x="564" y="136" />
            </Array>
            <mxPoint x="240" y="349" as="targetPoint" />
          </mxGeometry>
        </mxCell>
        <mxCell id="YXmZzTaMJZQWAt_202FO-58" value="rdfs:subClassOf" style="text;html=1;align=center;verticalAlign=middle;resizable=0;points=[];labelBackgroundColor=#ffffff;fontColor=#000000;fontStyle=1" vertex="1" connectable="0" parent="YXmZzTaMJZQWAt_202FO-57">
          <mxGeometry x="0.939" y="-19" relative="1" as="geometry">
            <mxPoint x="8.82" y="-10.170000000000002" as="offset" />
          </mxGeometry>
        </mxCell>
        <mxCell id="YXmZzTaMJZQWAt_202FO-59" style="edgeStyle=orthogonalEdgeStyle;comic=0;orthogonalLoop=1;jettySize=auto;html=1;shadow=0;startArrow=classic;startFill=1;endArrow=none;endFill=0;curved=1;dashed=1;exitX=1;exitY=0.5;exitDx=0;exitDy=0;entryX=0.5;entryY=0;entryDx=0;entryDy=0;fontStyle=1" edge="1" parent="1" source="YXmZzTaMJZQWAt_202FO-66" target="YXmZzTaMJZQWAt_202FO-78">
          <mxGeometry relative="1" as="geometry">
            <Array as="points">
              <mxPoint x="756" y="136" />
            </Array>
          </mxGeometry>
        </mxCell>
        <mxCell id="YXmZzTaMJZQWAt_202FO-60" value="rdfs:subClassOf" style="text;align=center;verticalAlign=middle;resizable=0;points=[];labelBackgroundColor=#ffffff;fontStyle=1" vertex="1" connectable="0" parent="YXmZzTaMJZQWAt_202FO-59">
          <mxGeometry x="0.2476" y="18" relative="1" as="geometry">
            <mxPoint x="135.28999999999996" y="88.46000000000001" as="offset" />
          </mxGeometry>
        </mxCell>
        <mxCell id="YXmZzTaMJZQWAt_202FO-61" style="edgeStyle=orthogonalEdgeStyle;curved=1;comic=0;orthogonalLoop=1;jettySize=auto;html=1;shadow=0;startArrow=classic;startFill=1;endArrow=none;endFill=0;dashed=1;exitX=0;exitY=1;exitDx=0;exitDy=0;entryX=1;entryY=0;entryDx=0;entryDy=0;fontStyle=1" edge="1" parent="1" source="YXmZzTaMJZQWAt_202FO-66" target="YXmZzTaMJZQWAt_202FO-40">
          <mxGeometry relative="1" as="geometry">
            <mxPoint x="120" y="136" as="sourcePoint" />
            <Array as="points">
              <mxPoint x="110" y="164" />
              <mxPoint x="110" y="477" />
            </Array>
          </mxGeometry>
        </mxCell>
        <mxCell id="YXmZzTaMJZQWAt_202FO-62" value="rdfs:subClassOf" style="text;align=center;verticalAlign=middle;resizable=0;points=[];labelBackgroundColor=#ffffff;labelBorderColor=none;fontColor=#000000;rotation=0;fontStyle=1" vertex="1" connectable="0" parent="YXmZzTaMJZQWAt_202FO-61">
          <mxGeometry x="0.5021" y="43" relative="1" as="geometry">
            <mxPoint x="-42.99999999999999" y="27.800000000000015" as="offset" />
          </mxGeometry>
        </mxCell>
        <mxCell id="YXmZzTaMJZQWAt_202FO-63" style="edgeStyle=orthogonalEdgeStyle;curved=1;comic=0;orthogonalLoop=1;jettySize=auto;html=1;entryX=0;entryY=0.5;entryDx=0;entryDy=0;shadow=0;startArrow=classic;startFill=1;endArrow=none;endFill=0;dashed=1;" edge="1" parent="1" source="YXmZzTaMJZQWAt_202FO-66" target="YXmZzTaMJZQWAt_202FO-30">
          <mxGeometry relative="1" as="geometry">
            <Array as="points">
              <mxPoint x="160" y="40" />
              <mxPoint x="-150" y="40" />
              <mxPoint x="-150" y="236" />
            </Array>
          </mxGeometry>
        </mxCell>
        <mxCell id="YXmZzTaMJZQWAt_202FO-64" value="&lt;span style=&quot;color: rgba(0 , 0 , 0 , 0) ; font-family: monospace ; font-size: 0px ; background-color: rgb(248 , 249 , 250)&quot;&gt;%3CmxGraphModel%3E%3Croot%3E%3CmxCell%20id%3D%220%22%2F%3E%3CmxCell%20id%3D%221%22%20parent%3D%220%22%2F%3E%3CmxCell%20id%3D%222%22%20value%3D%22rdfs%3AsubClassOf%22%20style%3D%22text%3Balign%3Dcenter%3BverticalAlign%3Dmiddle%3Bresizable%3D0%3Bpoints%3D%5B%5D%3BlabelBackgroundColor%3D%23ffffff%3BlabelBorderColor%3Dnone%3B%22%20vertex%3D%221%22%20connectable%3D%220%22%20parent%3D%221%22%3E%3CmxGeometry%20x%3D%22-372.9970588235292%22%20y%3D%22100%22%20as%3D%22geometry%22%3E%3CmxPoint%20x%3D%2224.65%22%20y%3D%22-3%22%20as%3D%22offset%22%2F%3E%3C%2FmxGeometry%3E%3C%2FmxCell%3E%3C%2Froot%3E%3C%2FmxGraphModel%3E&lt;/span&gt;&lt;span style=&quot;color: rgba(0 , 0 , 0 , 0) ; font-family: monospace ; font-size: 0px ; background-color: rgb(248 , 249 , 250)&quot;&gt;%3CmxGraphModel%3E%3Croot%3E%3CmxCell%20id%3D%220%22%2F%3E%3CmxCell%20id%3D%221%22%20parent%3D%220%22%2F%3E%3CmxCell%20id%3D%222%22%20value%3D%22rdfs%3AsubClassOf%22%20style%3D%22text%3Balign%3Dcenter%3BverticalAlign%3Dmiddle%3Bresizable%3D0%3Bpoints%3D%5B%5D%3BlabelBackgroundColor%3D%23ffffff%3BlabelBorderColor%3Dnone%3B%22%20vertex%3D%221%22%20connectable%3D%220%22%20parent%3D%221%22%3E%3CmxGeometry%20x%3D%22-372.9970588235292%22%20y%3D%22100%22%20as%3D%22geometry%22%3E%3CmxPoint%20x%3D%2224.65%22%20y%3D%22-3%22%20as%3D%22offset%22%2F%3E%3C%2FmxGeometry%3E%3C%2FmxCell%3E%3C%2Froot%3E%3C%2FmxGraphModel%3E&lt;/span&gt;" style="text;html=1;align=center;verticalAlign=middle;resizable=0;points=[];labelBackgroundColor=#ffffff;fontColor=#000000;fontStyle=1" vertex="1" connectable="0" parent="YXmZzTaMJZQWAt_202FO-63">
          <mxGeometry x="-0.0207" y="103" relative="1" as="geometry">
            <mxPoint x="1" as="offset" />
          </mxGeometry>
        </mxCell>
        <mxCell id="YXmZzTaMJZQWAt_202FO-65" value="rdfs:subClassOf" style="text;html=1;align=center;verticalAlign=middle;resizable=0;points=[];labelBackgroundColor=#ffffff;fontColor=#000000;fontStyle=1" vertex="1" connectable="0" parent="YXmZzTaMJZQWAt_202FO-63">
          <mxGeometry x="-0.035" y="98" relative="1" as="geometry">
            <mxPoint x="69" y="-98" as="offset" />
          </mxGeometry>
        </mxCell>
        <mxCell id="YXmZzTaMJZQWAt_202FO-66" value="owl:Thing" style="ellipse;whiteSpace=wrap;html=1;aspect=fixed;shadow=0;fontStyle=1" vertex="1" parent="1">
          <mxGeometry x="120" y="96" width="80" height="80" as="geometry" />
        </mxCell>
        <mxCell id="YXmZzTaMJZQWAt_202FO-67" style="edgeStyle=orthogonalEdgeStyle;curved=1;comic=0;orthogonalLoop=1;jettySize=auto;html=1;entryX=0.5;entryY=1;entryDx=0;entryDy=0;shadow=0;startArrow=none;startFill=0;endArrow=classic;endFill=1;fontColor=#000000;exitX=0.993;exitY=0.46;exitDx=0;exitDy=0;exitPerimeter=0;fontStyle=1" edge="1" parent="1" source="YXmZzTaMJZQWAt_202FO-69" target="YXmZzTaMJZQWAt_202FO-90">
          <mxGeometry relative="1" as="geometry">
            <Array as="points">
              <mxPoint x="239" y="387" />
              <mxPoint x="279" y="387" />
            </Array>
          </mxGeometry>
        </mxCell>
        <mxCell id="YXmZzTaMJZQWAt_202FO-68" value="&lt;span style=&quot;background-color: rgb(102 , 255 , 102)&quot;&gt;sbeo:atTime&lt;/span&gt;" style="text;html=1;align=center;verticalAlign=middle;resizable=0;points=[];labelBackgroundColor=#ffffff;fontStyle=1" vertex="1" connectable="0" parent="YXmZzTaMJZQWAt_202FO-67">
          <mxGeometry x="-0.2415" y="-7" relative="1" as="geometry">
            <mxPoint x="21.259999999999998" y="-23.89" as="offset" />
          </mxGeometry>
        </mxCell>
        <mxCell id="YXmZzTaMJZQWAt_202FO-69" value="sbeo:Sensor" style="ellipse;whiteSpace=wrap;html=1;aspect=fixed;fillColor=#dae8fc;strokeColor=#6c8ebf;shadow=0;fontStyle=1" vertex="1" parent="1">
          <mxGeometry x="143" y="350" width="80" height="80" as="geometry" />
        </mxCell>
        <mxCell id="YXmZzTaMJZQWAt_202FO-70" style="edgeStyle=orthogonalEdgeStyle;curved=1;comic=0;orthogonalLoop=1;jettySize=auto;html=1;entryX=1;entryY=0.5;entryDx=0;entryDy=0;shadow=0;startArrow=none;startFill=0;endArrow=classic;endFill=1;fontColor=#000000;exitX=0;exitY=0.5;exitDx=0;exitDy=0;fontStyle=1" edge="1" parent="1" source="YXmZzTaMJZQWAt_202FO-78" target="YXmZzTaMJZQWAt_202FO-4">
          <mxGeometry relative="1" as="geometry">
            <Array as="points">
              <mxPoint x="774.03" y="268.66" />
              <mxPoint x="734.03" y="268.66" />
            </Array>
          </mxGeometry>
        </mxCell>
        <mxCell id="YXmZzTaMJZQWAt_202FO-71" value="&lt;span style=&quot;background-color: rgb(102 , 255 , 255)&quot;&gt;sbeo:distanceOf&lt;/span&gt;" style="text;html=1;align=center;verticalAlign=middle;resizable=0;points=[];labelBackgroundColor=#ffffff;fontStyle=1" vertex="1" connectable="0" parent="YXmZzTaMJZQWAt_202FO-70">
          <mxGeometry x="0.0545" y="-2" relative="1" as="geometry">
            <mxPoint x="-47.99999999999999" y="-12.500000000000002" as="offset" />
          </mxGeometry>
        </mxCell>
        <mxCell id="YXmZzTaMJZQWAt_202FO-72" style="edgeStyle=orthogonalEdgeStyle;curved=1;comic=0;orthogonalLoop=1;jettySize=auto;html=1;shadow=0;startArrow=none;startFill=0;endArrow=classic;endFill=1;fontColor=#000000;exitX=0.5;exitY=1;exitDx=0;exitDy=0;entryX=0.5;entryY=1;entryDx=0;entryDy=0;fontStyle=1" edge="1" parent="1" source="YXmZzTaMJZQWAt_202FO-78" target="YXmZzTaMJZQWAt_202FO-48">
          <mxGeometry relative="1" as="geometry">
            <Array as="points">
              <mxPoint x="756" y="560" />
              <mxPoint x="454" y="560" />
            </Array>
            <mxPoint x="490" y="320" as="targetPoint" />
          </mxGeometry>
        </mxCell>
        <mxCell id="YXmZzTaMJZQWAt_202FO-73" value="&lt;span style=&quot;background-color: rgb(102 , 255 , 255)&quot;&gt;sbeo:distanceOf&lt;/span&gt;" style="text;html=1;align=center;verticalAlign=middle;resizable=0;points=[];labelBackgroundColor=#ffffff;fontStyle=1" vertex="1" connectable="0" parent="YXmZzTaMJZQWAt_202FO-72">
          <mxGeometry x="0.0525" y="-2" relative="1" as="geometry">
            <mxPoint x="22.020000000000003" y="-2" as="offset" />
          </mxGeometry>
        </mxCell>
        <mxCell id="YXmZzTaMJZQWAt_202FO-74" style="edgeStyle=orthogonalEdgeStyle;curved=1;comic=0;orthogonalLoop=1;jettySize=auto;html=1;exitX=1;exitY=0.5;exitDx=0;exitDy=0;entryX=0;entryY=0.5;entryDx=0;entryDy=0;shadow=0;startArrow=none;startFill=0;endArrow=classic;endFill=1;fontColor=#000000;fontStyle=1" edge="1" parent="1" source="YXmZzTaMJZQWAt_202FO-78" target="YXmZzTaMJZQWAt_202FO-82">
          <mxGeometry relative="1" as="geometry" />
        </mxCell>
        <mxCell id="YXmZzTaMJZQWAt_202FO-75" value="&lt;span style=&quot;background-color: rgb(102 , 255 , 255)&quot;&gt;sbeo:distanceOf&lt;/span&gt;" style="text;html=1;align=center;verticalAlign=middle;resizable=0;points=[];labelBackgroundColor=#ffffff;fontStyle=1" vertex="1" connectable="0" parent="YXmZzTaMJZQWAt_202FO-74">
          <mxGeometry x="0.7483" y="1" relative="1" as="geometry">
            <mxPoint x="4.109999999999995" y="-75.19" as="offset" />
          </mxGeometry>
        </mxCell>
        <mxCell id="YXmZzTaMJZQWAt_202FO-76" style="edgeStyle=orthogonalEdgeStyle;curved=1;comic=0;orthogonalLoop=1;jettySize=auto;html=1;entryX=0;entryY=0.5;entryDx=0;entryDy=0;shadow=0;startArrow=none;startFill=0;endArrow=classic;endFill=1;fontColor=#000000;exitX=0.5;exitY=1;exitDx=0;exitDy=0;fontStyle=1" edge="1" parent="1" source="YXmZzTaMJZQWAt_202FO-78" target="YXmZzTaMJZQWAt_202FO-79">
          <mxGeometry relative="1" as="geometry">
            <Array as="points">
              <mxPoint x="794" y="308" />
              <mxPoint x="794" y="484" />
            </Array>
          </mxGeometry>
        </mxCell>
        <mxCell id="YXmZzTaMJZQWAt_202FO-77" value="&lt;span style=&quot;background-color: rgb(102 , 255 , 255)&quot;&gt;sbeo:distanceOf&lt;/span&gt;" style="text;html=1;align=center;verticalAlign=middle;resizable=0;points=[];labelBackgroundColor=#ffffff;fontStyle=1" vertex="1" connectable="0" parent="YXmZzTaMJZQWAt_202FO-76">
          <mxGeometry x="-0.6436" y="12" relative="1" as="geometry">
            <mxPoint x="-4.560000000000001" y="126.64" as="offset" />
          </mxGeometry>
        </mxCell>
        <mxCell id="YXmZzTaMJZQWAt_202FO-78" value="&lt;span style=&quot;white-space: normal&quot;&gt;sbeo:Distance&lt;/span&gt;" style="ellipse;whiteSpace=wrap;html=1;aspect=fixed;fillColor=#dae8fc;strokeColor=#6c8ebf;shadow=0;fontStyle=1" vertex="1" parent="1">
          <mxGeometry x="716.03" y="228.16" width="80" height="80" as="geometry" />
        </mxCell>
        <mxCell id="YXmZzTaMJZQWAt_202FO-79" value="&lt;span style=&quot;white-space: normal&quot;&gt;sbeo:Exit&lt;/span&gt;" style="ellipse;whiteSpace=wrap;html=1;aspect=fixed;fillColor=#dae8fc;strokeColor=#6c8ebf;shadow=0;fontStyle=1" vertex="1" parent="1">
          <mxGeometry x="845.03" y="444" width="80" height="80" as="geometry" />
        </mxCell>
        <mxCell id="YXmZzTaMJZQWAt_202FO-80" style="edgeStyle=orthogonalEdgeStyle;curved=1;comic=0;orthogonalLoop=1;jettySize=auto;html=1;exitX=0.5;exitY=0;exitDx=0;exitDy=0;entryX=0.5;entryY=1;entryDx=0;entryDy=0;shadow=0;startArrow=none;startFill=0;endArrow=classic;endFill=1;fontColor=#000000;dashed=1;fontStyle=1" edge="1" parent="1" source="YXmZzTaMJZQWAt_202FO-82" target="YXmZzTaMJZQWAt_202FO-45">
          <mxGeometry relative="1" as="geometry" />
        </mxCell>
        <mxCell id="YXmZzTaMJZQWAt_202FO-81" value="rdfs:subClassOf" style="text;html=1;align=center;verticalAlign=middle;resizable=0;points=[];labelBackgroundColor=#ffffff;fontStyle=1" vertex="1" connectable="0" parent="YXmZzTaMJZQWAt_202FO-80">
          <mxGeometry x="0.1682" relative="1" as="geometry">
            <mxPoint y="7" as="offset" />
          </mxGeometry>
        </mxCell>
        <mxCell id="YXmZzTaMJZQWAt_202FO-82" value="&lt;span style=&quot;white-space: normal&quot;&gt;sbeo:Entrance&lt;/span&gt;" style="ellipse;whiteSpace=wrap;html=1;aspect=fixed;fillColor=#dae8fc;strokeColor=#6c8ebf;shadow=0;fontStyle=1" vertex="1" parent="1">
          <mxGeometry x="845.03" y="354.16" width="80" height="80" as="geometry" />
        </mxCell>
        <mxCell id="YXmZzTaMJZQWAt_202FO-83" style="edgeStyle=orthogonalEdgeStyle;curved=1;comic=0;orthogonalLoop=1;jettySize=auto;html=1;shadow=0;startArrow=none;startFill=0;endArrow=classic;endFill=1;fontColor=#000000;exitX=0;exitY=0.5;exitDx=0;exitDy=0;entryX=0.5;entryY=1;entryDx=0;entryDy=0;fontStyle=1" edge="1" parent="1" source="YXmZzTaMJZQWAt_202FO-87" target="YXmZzTaMJZQWAt_202FO-88">
          <mxGeometry relative="1" as="geometry">
            <Array as="points">
              <mxPoint x="834.03" y="574.01" />
              <mxPoint x="834.03" y="618.01" />
              <mxPoint x="713.03" y="618.01" />
            </Array>
            <mxPoint x="1003.3142712474976" y="648.225728752502" as="sourcePoint" />
          </mxGeometry>
        </mxCell>
        <mxCell id="YXmZzTaMJZQWAt_202FO-84" value="&lt;span style=&quot;background-color: rgb(102 , 255 , 102)&quot;&gt;sbeo:accomodation&lt;br&gt;Capacity&lt;/span&gt;" style="text;html=1;align=center;verticalAlign=middle;resizable=0;points=[];labelBackgroundColor=#ffffff;fontStyle=1" vertex="1" connectable="0" parent="YXmZzTaMJZQWAt_202FO-83">
          <mxGeometry x="-0.341" y="-3" relative="1" as="geometry">
            <mxPoint x="-47.399999999999984" y="-1.0000000000000107" as="offset" />
          </mxGeometry>
        </mxCell>
        <mxCell id="YXmZzTaMJZQWAt_202FO-85" style="edgeStyle=orthogonalEdgeStyle;curved=1;comic=0;orthogonalLoop=1;jettySize=auto;html=1;exitX=0;exitY=0.5;exitDx=0;exitDy=0;entryX=0.5;entryY=0;entryDx=0;entryDy=0;shadow=0;startArrow=none;startFill=0;endArrow=classic;endFill=1;fontColor=#000000;fontStyle=1" edge="1" parent="1" source="YXmZzTaMJZQWAt_202FO-87" target="YXmZzTaMJZQWAt_202FO-88">
          <mxGeometry relative="1" as="geometry">
            <Array as="points">
              <mxPoint x="834.03" y="574.01" />
              <mxPoint x="834.03" y="518.01" />
              <mxPoint x="713.03" y="518.01" />
            </Array>
            <mxPoint x="1147.5300000000002" y="481.51" as="targetPoint" />
          </mxGeometry>
        </mxCell>
        <mxCell id="YXmZzTaMJZQWAt_202FO-86" value="&lt;span style=&quot;background-color: rgb(102 , 255 , 102)&quot;&gt;sbeo:current&lt;/span&gt;&lt;br&gt;&lt;span style=&quot;background-color: rgb(102 , 255 , 102)&quot;&gt;Occupancy&lt;/span&gt;" style="text;html=1;align=center;verticalAlign=middle;resizable=0;points=[];labelBackgroundColor=#ffffff;fontStyle=1" vertex="1" connectable="0" parent="YXmZzTaMJZQWAt_202FO-85">
          <mxGeometry x="0.3235" y="-1" relative="1" as="geometry">
            <mxPoint x="27.799999999999994" y="11" as="offset" />
          </mxGeometry>
        </mxCell>
        <mxCell id="YXmZzTaMJZQWAt_202FO-87" value="sbeo:Available" style="ellipse;whiteSpace=wrap;html=1;aspect=fixed;fillColor=#dae8fc;strokeColor=#6c8ebf;shadow=0;fontStyle=1" vertex="1" parent="1">
          <mxGeometry x="845.03" y="534.01" width="80" height="80" as="geometry" />
        </mxCell>
        <mxCell id="YXmZzTaMJZQWAt_202FO-88" value="xsd:integer" style="rounded=0;whiteSpace=wrap;html=1;fillColor=#ffff88;strokeColor=#36393d;fontStyle=1" vertex="1" parent="1">
          <mxGeometry x="674.22" y="564.01" width="78" height="20" as="geometry" />
        </mxCell>
        <mxCell id="YXmZzTaMJZQWAt_202FO-89" value="xsd:integer" style="rounded=0;whiteSpace=wrap;html=1;fillColor=#ffff88;strokeColor=#36393d;fontStyle=1" vertex="1" parent="1">
          <mxGeometry x="-248" y="360" width="78" height="20" as="geometry" />
        </mxCell>
        <mxCell id="YXmZzTaMJZQWAt_202FO-90" value="xsd:long" style="rounded=0;whiteSpace=wrap;html=1;fillColor=#ffff88;strokeColor=#36393d;fontStyle=1" vertex="1" parent="1">
          <mxGeometry x="240" y="330" width="78" height="20" as="geometry" />
        </mxCell>
        <mxCell id="YXmZzTaMJZQWAt_202FO-91" value="xsd:long" style="rounded=0;whiteSpace=wrap;html=1;fillColor=#ffff88;strokeColor=#36393d;fontStyle=1" vertex="1" parent="1">
          <mxGeometry x="999.03" y="414.16" width="78" height="20" as="geometry" />
        </mxCell>
        <mxCell id="YXmZzTaMJZQWAt_202FO-92" value="xsd:integer" style="rounded=0;whiteSpace=wrap;html=1;fillColor=#ffff88;strokeColor=#36393d;fontStyle=1" vertex="1" parent="1">
          <mxGeometry x="-248" y="444" width="78" height="20" as="geometry" />
        </mxCell>
        <mxCell id="YXmZzTaMJZQWAt_202FO-93" value="xsd:integer" style="rounded=0;whiteSpace=wrap;html=1;fillColor=#ffff88;strokeColor=#36393d;fontStyle=1" vertex="1" parent="1">
          <mxGeometry x="-248" y="488.07000000000005" width="78" height="20" as="geometry" />
        </mxCell>
        <mxCell id="YXmZzTaMJZQWAt_202FO-94" value="xsd:string" style="rounded=0;whiteSpace=wrap;html=1;fillColor=#ffff88;strokeColor=#36393d;fontStyle=1" vertex="1" parent="1">
          <mxGeometry x="-248" y="535.9999999999999" width="78" height="20" as="geometry" />
        </mxCell>
        <mxCell id="YXmZzTaMJZQWAt_202FO-95" value="xsd:string" style="rounded=0;whiteSpace=wrap;html=1;fillColor=#ffff88;strokeColor=#36393d;fontStyle=1" vertex="1" parent="1">
          <mxGeometry x="-248" y="579" width="78" height="20" as="geometry" />
        </mxCell>
        <mxCell id="YXmZzTaMJZQWAt_202FO-96" value="xsd:boolean" style="rounded=0;whiteSpace=wrap;html=1;fillColor=#ffff88;strokeColor=#36393d;fontStyle=1" vertex="1" parent="1">
          <mxGeometry x="-248" y="626" width="78" height="20" as="geometry" />
        </mxCell>
        <mxCell id="YXmZzTaMJZQWAt_202FO-97" value="xsd:string" style="rounded=0;whiteSpace=wrap;html=1;fillColor=#ffff88;strokeColor=#36393d;fontStyle=1" vertex="1" parent="1">
          <mxGeometry x="-160" y="536" width="78" height="20" as="geometry" />
        </mxCell>
        <mxCell id="YXmZzTaMJZQWAt_202FO-98" value="xsd:integer" style="rounded=0;whiteSpace=wrap;html=1;fillColor=#ffff88;strokeColor=#36393d;fontStyle=1" vertex="1" parent="1">
          <mxGeometry x="31.999999999999915" y="626" width="78" height="20" as="geometry" />
        </mxCell>
        <mxCell id="YXmZzTaMJZQWAt_202FO-99" value="xsd:boolean" style="rounded=0;whiteSpace=wrap;html=1;fillColor=#ffff88;strokeColor=#36393d;fontStyle=1" vertex="1" parent="1">
          <mxGeometry x="-160" y="626" width="78" height="20" as="geometry" />
        </mxCell>
        <mxCell id="YXmZzTaMJZQWAt_202FO-100" value="xsd:long" style="rounded=0;whiteSpace=wrap;html=1;fillColor=#ffff88;strokeColor=#36393d;fontStyle=1" vertex="1" parent="1">
          <mxGeometry x="-160" y="579" width="78" height="20" as="geometry" />
        </mxCell>
        <mxCell id="YXmZzTaMJZQWAt_202FO-101" style="edgeStyle=orthogonalEdgeStyle;curved=1;comic=0;orthogonalLoop=1;jettySize=auto;html=1;exitX=0.5;exitY=0;exitDx=0;exitDy=0;entryX=1;entryY=0;entryDx=0;entryDy=0;shadow=0;startArrow=none;startFill=0;endArrow=classic;endFill=1;fontColor=#000000;" edge="1" parent="1" source="YXmZzTaMJZQWAt_202FO-30" target="YXmZzTaMJZQWAt_202FO-30">
          <mxGeometry relative="1" as="geometry">
            <Array as="points">
              <mxPoint x="-61" y="76" />
              <mxPoint x="-33" y="76" />
            </Array>
          </mxGeometry>
        </mxCell>
        <mxCell id="YXmZzTaMJZQWAt_202FO-102" value="&lt;span style=&quot;background-color: rgb(102 , 255 , 255)&quot;&gt;sbeo:accompanying&lt;br&gt;(transitive, symmetric)&lt;br&gt;&lt;/span&gt;" style="text;html=1;align=center;verticalAlign=middle;resizable=0;points=[];labelBackgroundColor=#ffffff;rotation=0;fontStyle=1" vertex="1" connectable="0" parent="YXmZzTaMJZQWAt_202FO-101">
          <mxGeometry x="0.3048" y="-2" relative="1" as="geometry">
            <mxPoint x="26.7" y="-4.55" as="offset" />
          </mxGeometry>
        </mxCell>
        <mxCell id="YXmZzTaMJZQWAt_202FO-103" style="edgeStyle=orthogonalEdgeStyle;curved=1;comic=0;orthogonalLoop=1;jettySize=auto;html=1;entryX=1;entryY=0;entryDx=0;entryDy=0;shadow=0;startArrow=none;startFill=0;endArrow=classic;endFill=1;fontColor=#000000;fontStyle=1" edge="1" parent="1" source="YXmZzTaMJZQWAt_202FO-30" target="YXmZzTaMJZQWAt_202FO-30">
          <mxGeometry relative="1" as="geometry">
            <Array as="points">
              <mxPoint x="-61" y="166" />
              <mxPoint x="62" y="166" />
              <mxPoint x="62" y="208" />
            </Array>
          </mxGeometry>
        </mxCell>
        <mxCell id="YXmZzTaMJZQWAt_202FO-104" value="sbeo:acquaintanceOf&#xa;(symmetric)" style="text;align=center;verticalAlign=middle;resizable=0;points=[];labelBackgroundColor=#66FFFF;labelBorderColor=none;spacingTop=0;labelPosition=center;verticalLabelPosition=middle;horizontal=1;rotation=0;fontStyle=1" vertex="1" connectable="0" parent="YXmZzTaMJZQWAt_202FO-103">
          <mxGeometry x="-0.2913" relative="1" as="geometry">
            <mxPoint x="20.17" y="4.97" as="offset" />
          </mxGeometry>
        </mxCell>
        <mxCell id="YXmZzTaMJZQWAt_202FO-105" style="edgeStyle=orthogonalEdgeStyle;curved=1;comic=0;orthogonalLoop=1;jettySize=auto;html=1;exitX=0;exitY=1;exitDx=0;exitDy=0;entryX=0;entryY=0.5;entryDx=0;entryDy=0;shadow=0;startArrow=none;startFill=0;endArrow=classic;endFill=1;fontColor=#000000;fontStyle=1" edge="1" parent="1" source="YXmZzTaMJZQWAt_202FO-48" target="YXmZzTaMJZQWAt_202FO-48">
          <mxGeometry relative="1" as="geometry">
            <Array as="points">
              <mxPoint x="426" y="360" />
              <mxPoint x="380" y="360" />
              <mxPoint x="380" y="265" />
            </Array>
          </mxGeometry>
        </mxCell>
        <mxCell id="YXmZzTaMJZQWAt_202FO-106" value="&lt;span style=&quot;background-color: rgb(102 , 255 , 255)&quot;&gt;sbeo:adjacentTo&lt;br&gt;(symmetric)&lt;/span&gt;" style="text;html=1;align=center;verticalAlign=middle;resizable=0;points=[];labelBackgroundColor=#ffffff;fontStyle=1" vertex="1" connectable="0" parent="YXmZzTaMJZQWAt_202FO-105">
          <mxGeometry x="-0.2797" y="-1" relative="1" as="geometry">
            <mxPoint x="-5.439999999999995" y="-29" as="offset" />
          </mxGeometry>
        </mxCell>
        <mxCell id="YXmZzTaMJZQWAt_202FO-107" style="edgeStyle=orthogonalEdgeStyle;curved=1;comic=0;orthogonalLoop=1;jettySize=auto;html=1;exitX=1;exitY=0;exitDx=0;exitDy=0;entryX=1;entryY=0.5;entryDx=0;entryDy=0;shadow=0;startArrow=none;startFill=0;endArrow=classic;endFill=1;fontColor=#000000;fontStyle=1" edge="1" parent="1" source="YXmZzTaMJZQWAt_202FO-30" target="YXmZzTaMJZQWAt_202FO-30">
          <mxGeometry relative="1" as="geometry">
            <Array as="points">
              <mxPoint x="82" y="208" />
              <mxPoint x="82" y="236" />
            </Array>
          </mxGeometry>
        </mxCell>
        <mxCell id="YXmZzTaMJZQWAt_202FO-108" value="&lt;span style=&quot;background-color: rgb(102 , 255 , 255)&quot;&gt;sbeo:dependentOn&lt;/span&gt;&lt;br&gt;&lt;span style=&quot;background-color: rgb(102 , 255 , 255)&quot;&gt;(transitive)&lt;/span&gt;" style="text;html=1;align=center;verticalAlign=middle;resizable=0;points=[];labelBackgroundColor=#ffffff;fontStyle=1" vertex="1" connectable="0" parent="YXmZzTaMJZQWAt_202FO-107">
          <mxGeometry x="0.1236" y="-29" relative="1" as="geometry">
            <mxPoint y="-1" as="offset" />
          </mxGeometry>
        </mxCell>
        <mxCell id="YXmZzTaMJZQWAt_202FO-109" style="edgeStyle=orthogonalEdgeStyle;curved=1;comic=0;orthogonalLoop=1;jettySize=auto;html=1;exitX=0.5;exitY=0;exitDx=0;exitDy=0;shadow=0;startArrow=none;startFill=0;endArrow=classic;endFill=1;fontColor=#000000;fontStyle=1" edge="1" parent="1" source="YXmZzTaMJZQWAt_202FO-30">
          <mxGeometry relative="1" as="geometry">
            <mxPoint x="-89" y="207.99999999999955" as="targetPoint" />
            <Array as="points">
              <mxPoint x="-61" y="136" />
              <mxPoint x="-89" y="136" />
            </Array>
          </mxGeometry>
        </mxCell>
        <mxCell id="YXmZzTaMJZQWAt_202FO-110" value="&lt;span style=&quot;background-color: rgb(102 , 255 , 255)&quot;&gt;sbeo:responsibleTo&lt;br&gt;(transitive)&lt;br&gt;&lt;/span&gt;" style="text;html=1;align=center;verticalAlign=middle;resizable=0;points=[];labelBackgroundColor=#ffffff;fontStyle=1" vertex="1" connectable="0" parent="YXmZzTaMJZQWAt_202FO-109">
          <mxGeometry x="0.6789" relative="1" as="geometry">
            <mxPoint x="0.9900000000000002" y="-26.34" as="offset" />
          </mxGeometry>
        </mxCell>
        <mxCell id="YXmZzTaMJZQWAt_202FO-111" value="sbeo:Exit&lt;br&gt;sbeo:Route&lt;br&gt;sbeo:Entrance&lt;br&gt;seas:ZoneConnection&lt;br&gt;seas:Zone" style="ellipse;whiteSpace=wrap;html=1;aspect=fixed;fillColor=#FF99FF;strokeColor=#6c8ebf;rounded=0;labelBackgroundColor=none;align=center;fontStyle=1" vertex="1" parent="1">
          <mxGeometry x="239.99999999999994" y="465" width="80" height="80" as="geometry" />
        </mxCell>
        <mxCell id="YXmZzTaMJZQWAt_202FO-112" style="edgeStyle=orthogonalEdgeStyle;curved=1;comic=0;orthogonalLoop=1;jettySize=auto;html=1;exitX=1;exitY=0.5;exitDx=0;exitDy=0;shadow=0;startArrow=none;startFill=0;endArrow=classic;endFill=1;fontColor=#000000;entryX=0;entryY=0.5;entryDx=0;entryDy=0;fontStyle=1" edge="1" parent="1" source="YXmZzTaMJZQWAt_202FO-40" target="YXmZzTaMJZQWAt_202FO-111">
          <mxGeometry relative="1" as="geometry">
            <mxPoint x="295.9457287525378" y="679.3557287525379" as="sourcePoint" />
            <mxPoint x="170.08999999999992" y="586" as="targetPoint" />
            <Array as="points">
              <mxPoint x="140" y="505" />
              <mxPoint x="140" y="505" />
            </Array>
          </mxGeometry>
        </mxCell>
        <mxCell id="YXmZzTaMJZQWAt_202FO-113" value="&lt;span style=&quot;background-color: rgb(102 , 255 , 255)&quot;&gt;sbeo:startsFrom&lt;/span&gt;" style="text;html=1;align=center;verticalAlign=middle;resizable=0;points=[];labelBackgroundColor=#ffffff;fontStyle=1" vertex="1" connectable="0" parent="YXmZzTaMJZQWAt_202FO-112">
          <mxGeometry x="-0.028" y="-8" relative="1" as="geometry">
            <mxPoint x="6.570000000000007" y="-8" as="offset" />
          </mxGeometry>
        </mxCell>
        <mxCell id="YXmZzTaMJZQWAt_202FO-114" style="edgeStyle=orthogonalEdgeStyle;curved=1;comic=0;orthogonalLoop=1;jettySize=auto;html=1;exitX=0.5;exitY=0;exitDx=0;exitDy=0;entryX=1;entryY=0;entryDx=0;entryDy=0;shadow=0;startArrow=none;startFill=0;endArrow=classic;endFill=1;fontColor=#000000;fontStyle=1" edge="1" parent="1" source="YXmZzTaMJZQWAt_202FO-111" target="YXmZzTaMJZQWAt_202FO-111">
          <mxGeometry relative="1" as="geometry">
            <Array as="points">
              <mxPoint x="280" y="400" />
              <mxPoint x="308" y="400" />
            </Array>
          </mxGeometry>
        </mxCell>
        <mxCell id="YXmZzTaMJZQWAt_202FO-115" value="&lt;span style=&quot;background-color: rgb(102 , 255 , 255)&quot;&gt;sbeo:connectedTo&lt;br&gt;(symmetric&lt;/span&gt;&lt;span style=&quot;background-color: rgb(102 , 255 , 255)&quot;&gt;)&lt;/span&gt;" style="text;html=1;align=center;verticalAlign=middle;resizable=0;points=[];labelBackgroundColor=#ffffff;fontStyle=1" vertex="1" connectable="0" parent="YXmZzTaMJZQWAt_202FO-114">
          <mxGeometry x="0.4497" y="-1" relative="1" as="geometry">
            <mxPoint x="-17.29" y="-6.029999999999999" as="offset" />
          </mxGeometry>
        </mxCell>
        <mxCell id="YXmZzTaMJZQWAt_202FO-116" style="edgeStyle=orthogonalEdgeStyle;curved=1;comic=0;orthogonalLoop=1;jettySize=auto;html=1;entryX=0.5;entryY=1;entryDx=0;entryDy=0;shadow=0;startArrow=none;startFill=0;endArrow=classic;endFill=1;fontColor=#000000;exitX=0.5;exitY=0;exitDx=0;exitDy=0;fontStyle=1" edge="1" parent="1" source="YXmZzTaMJZQWAt_202FO-120" target="YXmZzTaMJZQWAt_202FO-4">
          <mxGeometry relative="1" as="geometry">
            <Array as="points">
              <mxPoint x="564.03" y="428.66" />
            </Array>
          </mxGeometry>
        </mxCell>
        <mxCell id="YXmZzTaMJZQWAt_202FO-117" value="&lt;span style=&quot;background-color: rgb(102 , 255 , 255)&quot;&gt;sbeo:locatedIn&lt;/span&gt;" style="text;html=1;align=center;verticalAlign=middle;resizable=0;points=[];labelBackgroundColor=#ffffff;rotation=0;fontStyle=1" vertex="1" connectable="0" parent="YXmZzTaMJZQWAt_202FO-116">
          <mxGeometry x="-0.3128" y="-8" relative="1" as="geometry">
            <mxPoint x="-8" y="-59.669999999999995" as="offset" />
          </mxGeometry>
        </mxCell>
        <mxCell id="YXmZzTaMJZQWAt_202FO-118" style="edgeStyle=orthogonalEdgeStyle;curved=1;comic=0;orthogonalLoop=1;jettySize=auto;html=1;entryX=1;entryY=0.5;entryDx=0;entryDy=0;shadow=0;startArrow=none;startFill=0;endArrow=classic;endFill=1;fontColor=#000000;exitX=0;exitY=0.5;exitDx=0;exitDy=0;fontStyle=1" edge="1" parent="1" source="YXmZzTaMJZQWAt_202FO-120" target="YXmZzTaMJZQWAt_202FO-48">
          <mxGeometry relative="1" as="geometry">
            <Array as="points">
              <mxPoint x="520" y="449" />
              <mxPoint x="520" y="265" />
            </Array>
          </mxGeometry>
        </mxCell>
        <mxCell id="YXmZzTaMJZQWAt_202FO-119" value="&lt;span style=&quot;background-color: rgb(102 , 255 , 255)&quot;&gt;sbeo:locatedIn&lt;/span&gt;" style="text;html=1;align=center;verticalAlign=middle;resizable=0;points=[];labelBackgroundColor=#ffffff;rotation=0;fontStyle=1" vertex="1" connectable="0" parent="YXmZzTaMJZQWAt_202FO-118">
          <mxGeometry x="0.0607" y="2" relative="1" as="geometry">
            <mxPoint x="-8" y="40.39999999999999" as="offset" />
          </mxGeometry>
        </mxCell>
        <mxCell id="YXmZzTaMJZQWAt_202FO-120" value="sbeo:Exit&lt;br&gt;sbeo:Entrance&lt;br&gt;seas:ZoneConnection&lt;br&gt;seas:Zone&lt;br&gt;foaf:Person&lt;br&gt;sbeo:Incident" style="ellipse;whiteSpace=wrap;html=1;aspect=fixed;fillColor=#FF99FF;strokeColor=#6c8ebf;rounded=0;labelBackgroundColor=none;align=center;fontStyle=1" vertex="1" parent="1">
          <mxGeometry x="524.03" y="408.66" width="80" height="80" as="geometry" />
        </mxCell>
        <mxCell id="YXmZzTaMJZQWAt_202FO-121" style="edgeStyle=orthogonalEdgeStyle;curved=1;comic=0;orthogonalLoop=1;jettySize=auto;html=1;entryX=1;entryY=0.5;entryDx=0;entryDy=0;shadow=0;startArrow=none;startFill=0;endArrow=classic;endFill=1;fontColor=#000000;exitX=0.5;exitY=0;exitDx=0;exitDy=0;fontStyle=1" edge="1" parent="1" source="YXmZzTaMJZQWAt_202FO-125" target="YXmZzTaMJZQWAt_202FO-4">
          <mxGeometry relative="1" as="geometry" />
        </mxCell>
        <mxCell id="YXmZzTaMJZQWAt_202FO-122" value="sbeo:installedIn" style="text;html=1;align=center;verticalAlign=middle;resizable=0;points=[];labelBackgroundColor=#66FFFF;rotation=0;fontStyle=1" vertex="1" connectable="0" parent="YXmZzTaMJZQWAt_202FO-121">
          <mxGeometry x="-0.3551" y="5" relative="1" as="geometry">
            <mxPoint x="-0.7799999999999995" y="1.0499999999999972" as="offset" />
          </mxGeometry>
        </mxCell>
        <mxCell id="YXmZzTaMJZQWAt_202FO-123" style="edgeStyle=orthogonalEdgeStyle;curved=1;comic=0;orthogonalLoop=1;jettySize=auto;html=1;shadow=0;startArrow=none;startFill=0;endArrow=classic;endFill=1;fontColor=#000000;exitX=0.5;exitY=1;exitDx=0;exitDy=0;entryX=0.5;entryY=1;entryDx=0;entryDy=0;fontStyle=1" edge="1" parent="1" source="YXmZzTaMJZQWAt_202FO-125" target="YXmZzTaMJZQWAt_202FO-48">
          <mxGeometry relative="1" as="geometry">
            <Array as="points">
              <mxPoint x="680" y="530" />
              <mxPoint x="454" y="530" />
            </Array>
            <mxPoint x="480" y="320" as="targetPoint" />
          </mxGeometry>
        </mxCell>
        <mxCell id="YXmZzTaMJZQWAt_202FO-124" value="&lt;span style=&quot;background-color: rgb(102 , 255 , 255)&quot;&gt;sbeo:installedIn&lt;/span&gt;" style="text;html=1;align=center;verticalAlign=middle;resizable=0;points=[];labelBackgroundColor=#ffffff;fontStyle=1" vertex="1" connectable="0" parent="YXmZzTaMJZQWAt_202FO-123">
          <mxGeometry x="-0.1676" y="1" relative="1" as="geometry">
            <mxPoint x="83.77000000000001" y="-4.03" as="offset" />
          </mxGeometry>
        </mxCell>
        <mxCell id="YXmZzTaMJZQWAt_202FO-125" value="sbeo:Device&lt;br&gt;seas:Zone&lt;br&gt;seas:ZoneConnection" style="ellipse;whiteSpace=wrap;html=1;aspect=fixed;fillColor=#FF99FF;strokeColor=#6c8ebf;rounded=0;labelBackgroundColor=none;align=center;fontStyle=1" vertex="1" parent="1">
          <mxGeometry x="640" y="408.66" width="80" height="80" as="geometry" />
        </mxCell>
        <mxCell id="YXmZzTaMJZQWAt_202FO-126" value="xsd:integer" style="rounded=0;whiteSpace=wrap;html=1;fillColor=#ffff88;strokeColor=#36393d;fontStyle=1" vertex="1" parent="1">
          <mxGeometry x="290" y="283.5" width="78" height="20" as="geometry" />
        </mxCell>
        <mxCell id="YXmZzTaMJZQWAt_202FO-127" style="edgeStyle=orthogonalEdgeStyle;curved=1;comic=0;orthogonalLoop=1;jettySize=auto;html=1;exitX=0;exitY=0;exitDx=0;exitDy=0;entryX=0;entryY=0.5;entryDx=0;entryDy=0;shadow=0;startArrow=none;startFill=0;endArrow=classic;endFill=1;fontColor=#000000;fontStyle=1" edge="1" parent="1" source="YXmZzTaMJZQWAt_202FO-48" target="YXmZzTaMJZQWAt_202FO-126">
          <mxGeometry relative="1" as="geometry">
            <Array as="points">
              <mxPoint x="426" y="200" />
              <mxPoint x="250" y="200" />
              <mxPoint x="250" y="294" />
            </Array>
            <mxPoint x="548.2842712474799" y="291.78427124747964" as="sourcePoint" />
            <mxPoint x="728.9899999999998" y="741" as="targetPoint" />
          </mxGeometry>
        </mxCell>
        <mxCell id="YXmZzTaMJZQWAt_202FO-128" value="&lt;span style=&quot;background-color: rgb(102 , 255 , 102)&quot;&gt;sbeo:current&lt;br&gt;Occupancy&lt;/span&gt;" style="text;html=1;align=center;verticalAlign=middle;resizable=0;points=[];labelBackgroundColor=#ffffff;fontStyle=1" vertex="1" connectable="0" parent="YXmZzTaMJZQWAt_202FO-127">
          <mxGeometry x="0.3717" y="1" relative="1" as="geometry">
            <mxPoint x="78" y="-27.710000000000008" as="offset" />
          </mxGeometry>
        </mxCell>
        <mxCell id="YXmZzTaMJZQWAt_202FO-129" value="SBEO :Smart Building Evacuation Ontology&lt;br&gt;Class Property Diagram (Minimal)&lt;br&gt;&amp;nbsp;" style="text;strokeColor=none;fillColor=none;html=1;fontSize=24;fontStyle=1;verticalAlign=middle;align=center;" vertex="1" parent="1">
          <mxGeometry x="307.5" y="30" width="100" height="40" as="geometry" />
        </mxCell>
        <mxCell id="YXmZzTaMJZQWAt_202FO-130" value="xsd:integer" style="rounded=0;whiteSpace=wrap;html=1;fillColor=#ffff88;strokeColor=#36393d;fontStyle=1" vertex="1" parent="1">
          <mxGeometry x="-250" y="404" width="78" height="20" as="geometry" />
        </mxCell>
        <mxCell id="YXmZzTaMJZQWAt_202FO-131" value="" style="group;" vertex="1" connectable="0" parent="1">
          <mxGeometry x="-380" y="-4" width="216" height="310" as="geometry" />
        </mxCell>
        <mxCell id="YXmZzTaMJZQWAt_202FO-132" value="" style="shape=ext;double=1;whiteSpace=wrap;html=1;align=center;" vertex="1" parent="YXmZzTaMJZQWAt_202FO-131">
          <mxGeometry width="216" height="310" as="geometry" />
        </mxCell>
        <mxCell id="YXmZzTaMJZQWAt_202FO-133" value="" style="ellipse;whiteSpace=wrap;html=1;aspect=fixed;fillColor=#dae8fc;strokeColor=#6c8ebf;" vertex="1" parent="YXmZzTaMJZQWAt_202FO-131">
          <mxGeometry x="17" y="4.5" width="40" height="40" as="geometry" />
        </mxCell>
        <mxCell id="YXmZzTaMJZQWAt_202FO-134" value="" style="ellipse;whiteSpace=wrap;html=1;aspect=fixed;fillColor=#1ba1e2;strokeColor=#006EAF;fontColor=#ffffff;" vertex="1" parent="YXmZzTaMJZQWAt_202FO-131">
          <mxGeometry x="17" y="50.5" width="40" height="40" as="geometry" />
        </mxCell>
        <mxCell id="YXmZzTaMJZQWAt_202FO-135" value="" style="rounded=0;whiteSpace=wrap;html=1;fillColor=#ffff88;strokeColor=#36393d;fontStyle=1" vertex="1" parent="YXmZzTaMJZQWAt_202FO-131">
          <mxGeometry x="11.5" y="146.5" width="49" height="20" as="geometry" />
        </mxCell>
        <UserObject label="&lt;span style=&quot;font-size: 15px ; text-align: center ; background-color: rgb(102 , 255 , 102)&quot;&gt;&lt;font color=&quot;#66ff66&quot;&gt;sbeo:ha&lt;/font&gt;&lt;/span&gt;" id="YXmZzTaMJZQWAt_202FO-136">
          <mxCell style="text;html=1;fontStyle=1" vertex="1" parent="YXmZzTaMJZQWAt_202FO-131">
            <mxGeometry x="8" y="206.5" width="56" height="30" as="geometry" />
          </mxCell>
        </UserObject>
        <UserObject label="&lt;span style=&quot;font-size: 15px ; text-align: center ; background-color: rgb(102 , 255 , 255)&quot;&gt;&lt;font color=&quot;#66ffff&quot;&gt;sbeo:ha&lt;/font&gt;&lt;/span&gt;" id="YXmZzTaMJZQWAt_202FO-137">
          <mxCell style="text;html=1;fontStyle=1" vertex="1" parent="YXmZzTaMJZQWAt_202FO-131">
            <mxGeometry x="8" y="174.5" width="56" height="30" as="geometry" />
          </mxCell>
        </UserObject>
        <mxCell id="YXmZzTaMJZQWAt_202FO-138" value="" style="ellipse;whiteSpace=wrap;html=1;aspect=fixed;fillColor=#FF99FF;strokeColor=#6c8ebf;rounded=0;labelBackgroundColor=none;align=center;fontStyle=1" vertex="1" parent="YXmZzTaMJZQWAt_202FO-131">
          <mxGeometry x="17" y="96.5" width="40" height="40" as="geometry" />
        </mxCell>
        <mxCell id="YXmZzTaMJZQWAt_202FO-139" value="Class" style="text;html=1;align=center;verticalAlign=middle;resizable=0;points=[];autosize=1;labelPosition=center;verticalLabelPosition=middle;fontStyle=1" vertex="1" parent="YXmZzTaMJZQWAt_202FO-131">
          <mxGeometry x="113" y="10.5" width="50" height="20" as="geometry" />
        </mxCell>
        <mxCell id="YXmZzTaMJZQWAt_202FO-140" value="External class,&lt;br&gt;reused/imported&lt;br&gt;from other ontologies" style="text;html=1;align=center;verticalAlign=middle;resizable=0;points=[];autosize=1;labelPosition=center;verticalLabelPosition=middle;fontStyle=1" vertex="1" parent="YXmZzTaMJZQWAt_202FO-131">
          <mxGeometry x="71" y="42.5" width="140" height="50" as="geometry" />
        </mxCell>
        <mxCell id="YXmZzTaMJZQWAt_202FO-141" value="Multiple Classes&lt;br&gt;all together" style="text;html=1;align=center;verticalAlign=middle;resizable=0;points=[];autosize=1;labelPosition=center;verticalLabelPosition=middle;fontStyle=1" vertex="1" parent="YXmZzTaMJZQWAt_202FO-131">
          <mxGeometry x="86" y="100.5" width="110" height="30" as="geometry" />
        </mxCell>
        <mxCell id="YXmZzTaMJZQWAt_202FO-142" value="Datatype of the&lt;br&gt;Range of Data Property" style="text;html=1;align=center;verticalAlign=middle;resizable=0;points=[];autosize=1;labelPosition=center;verticalLabelPosition=middle;fontStyle=1" vertex="1" parent="YXmZzTaMJZQWAt_202FO-131">
          <mxGeometry x="66" y="140.5" width="150" height="30" as="geometry" />
        </mxCell>
        <mxCell id="YXmZzTaMJZQWAt_202FO-143" value="Object Property" style="text;html=1;align=center;verticalAlign=middle;resizable=0;points=[];autosize=1;labelPosition=center;verticalLabelPosition=middle;fontStyle=1" vertex="1" parent="YXmZzTaMJZQWAt_202FO-131">
          <mxGeometry x="84" y="179.5" width="110" height="20" as="geometry" />
        </mxCell>
        <mxCell id="YXmZzTaMJZQWAt_202FO-144" value="Data Property" style="text;html=1;align=center;verticalAlign=middle;resizable=0;points=[];autosize=1;labelPosition=center;verticalLabelPosition=middle;fontStyle=1" vertex="1" parent="YXmZzTaMJZQWAt_202FO-131">
          <mxGeometry x="93" y="210.5" width="90" height="20" as="geometry" />
        </mxCell>
        <UserObject label="&lt;span style=&quot;font-size: 15px ; text-align: center ; background-color: rgb(255 , 102 , 102)&quot;&gt;&lt;font color=&quot;#ff6666&quot;&gt;sbeo:ha&lt;/font&gt;&lt;/span&gt;" id="YXmZzTaMJZQWAt_202FO-145">
          <mxCell style="text;html=1;fontStyle=1" vertex="1" parent="YXmZzTaMJZQWAt_202FO-131">
            <mxGeometry x="8" y="237.5" width="56" height="30" as="geometry" />
          </mxCell>
        </UserObject>
        <mxCell id="YXmZzTaMJZQWAt_202FO-146" value="External property,&lt;br&gt;reused/imported&lt;br&gt;from other ontologies" style="text;html=1;align=center;verticalAlign=middle;resizable=0;points=[];autosize=1;fontStyle=1" vertex="1" parent="YXmZzTaMJZQWAt_202FO-131">
          <mxGeometry x="71" y="233.5" width="140" height="50" as="geometry" />
        </mxCell>
        <mxCell id="YXmZzTaMJZQWAt_202FO-147" value="" style="group;fontStyle=1" vertex="1" connectable="0" parent="YXmZzTaMJZQWAt_202FO-131">
          <mxGeometry x="23" y="283" width="170" height="20" as="geometry" />
        </mxCell>
        <mxCell id="YXmZzTaMJZQWAt_202FO-148" value="" style="endArrow=classic;html=1;targetPerimeterSpacing=0;endSize=12;startSize=15;jumpSize=6;strokeColor=#000000;rounded=0;fontStyle=1" edge="1" parent="YXmZzTaMJZQWAt_202FO-147">
          <mxGeometry width="50" height="50" relative="1" as="geometry">
            <mxPoint x="60" y="11" as="sourcePoint" />
            <mxPoint x="120" y="11" as="targetPoint" />
          </mxGeometry>
        </mxCell>
        <mxCell id="YXmZzTaMJZQWAt_202FO-149" value="Range" style="text;html=1;align=center;verticalAlign=middle;resizable=0;points=[];autosize=1;fontStyle=1" vertex="1" parent="YXmZzTaMJZQWAt_202FO-147">
          <mxGeometry x="120" width="50" height="20" as="geometry" />
        </mxCell>
        <mxCell id="YXmZzTaMJZQWAt_202FO-150" value="Domain" style="text;html=1;align=center;verticalAlign=middle;resizable=0;points=[];autosize=1;fontStyle=1" vertex="1" parent="YXmZzTaMJZQWAt_202FO-147">
          <mxGeometry width="60" height="20" as="geometry" />
        </mxCell>
      </root>
    </mxGraphModel>
  </diagram>
</mxfile>
